<mxfile host="Electron" agent="Mozilla/5.0 (Windows NT 10.0; Win64; x64) AppleWebKit/537.36 (KHTML, like Gecko) draw.io/28.1.2 Chrome/138.0.7204.243 Electron/37.4.0 Safari/537.36" version="28.1.2">
  <diagram name="Page-1" id="gU_gAMFwsNp9LOsLNUbT">
    <mxGraphModel dx="2066" dy="1249" grid="1" gridSize="10" guides="1" tooltips="1" connect="1" arrows="1" fold="1" page="1" pageScale="2" pageWidth="850" pageHeight="1100" math="0" shadow="0">
      <root>
        <mxCell id="0" />
        <mxCell id="1" parent="0" />
        <mxCell id="I4wE88-YnJjtMIAT1H6s-1" value="" style="rounded=0;whiteSpace=wrap;html=1;fillColor=none;dashed=1;" parent="1" vertex="1">
          <mxGeometry x="400" y="310" width="120" height="410" as="geometry" />
        </mxCell>
        <mxCell id="I4wE88-YnJjtMIAT1H6s-3" value="&lt;font style=&quot;font-size: 14px;&quot;&gt;Sources&lt;/font&gt;" style="rounded=1;whiteSpace=wrap;html=1;strokeColor=none;fillColor=default;" parent="1" vertex="1">
          <mxGeometry x="435" y="290" width="50" height="40" as="geometry" />
        </mxCell>
        <mxCell id="I4wE88-YnJjtMIAT1H6s-21" style="edgeStyle=orthogonalEdgeStyle;rounded=0;orthogonalLoop=1;jettySize=auto;html=1;entryX=0;entryY=0.5;entryDx=0;entryDy=0;" parent="1" source="I4wE88-YnJjtMIAT1H6s-4" target="I4wE88-YnJjtMIAT1H6s-13" edge="1">
          <mxGeometry relative="1" as="geometry" />
        </mxCell>
        <mxCell id="I4wE88-YnJjtMIAT1H6s-22" style="edgeStyle=orthogonalEdgeStyle;rounded=0;orthogonalLoop=1;jettySize=auto;html=1;entryX=0;entryY=0.5;entryDx=0;entryDy=0;" parent="1" source="I4wE88-YnJjtMIAT1H6s-4" target="I4wE88-YnJjtMIAT1H6s-14" edge="1">
          <mxGeometry relative="1" as="geometry" />
        </mxCell>
        <mxCell id="I4wE88-YnJjtMIAT1H6s-4" value="" style="image;aspect=fixed;html=1;points=[];align=center;fontSize=12;image=img/lib/azure2/general/Folder_Blank.svg;" parent="1" vertex="1">
          <mxGeometry x="429.18" y="430" width="61.61" height="50" as="geometry" />
        </mxCell>
        <mxCell id="I4wE88-YnJjtMIAT1H6s-5" value="&lt;b&gt;CRM&lt;/b&gt;" style="rounded=1;whiteSpace=wrap;html=1;strokeColor=none;fillColor=none;" parent="1" vertex="1">
          <mxGeometry x="420.82" y="480" width="70" height="30" as="geometry" />
        </mxCell>
        <mxCell id="I4wE88-YnJjtMIAT1H6s-24" style="edgeStyle=orthogonalEdgeStyle;rounded=0;orthogonalLoop=1;jettySize=auto;html=1;entryX=0;entryY=0.5;entryDx=0;entryDy=0;" parent="1" source="I4wE88-YnJjtMIAT1H6s-7" target="I4wE88-YnJjtMIAT1H6s-15" edge="1">
          <mxGeometry relative="1" as="geometry" />
        </mxCell>
        <mxCell id="I4wE88-YnJjtMIAT1H6s-27" style="edgeStyle=orthogonalEdgeStyle;rounded=0;orthogonalLoop=1;jettySize=auto;html=1;entryX=0;entryY=0.5;entryDx=0;entryDy=0;" parent="1" source="I4wE88-YnJjtMIAT1H6s-7" target="I4wE88-YnJjtMIAT1H6s-17" edge="1">
          <mxGeometry relative="1" as="geometry" />
        </mxCell>
        <mxCell id="I4wE88-YnJjtMIAT1H6s-7" value="" style="image;aspect=fixed;html=1;points=[];align=center;fontSize=12;image=img/lib/azure2/general/Folder_Blank.svg;" parent="1" vertex="1">
          <mxGeometry x="429.2" y="580" width="61.61" height="50" as="geometry" />
        </mxCell>
        <mxCell id="I4wE88-YnJjtMIAT1H6s-8" value="&lt;b&gt;ERP&lt;/b&gt;" style="rounded=1;whiteSpace=wrap;html=1;strokeColor=none;fillColor=none;" parent="1" vertex="1">
          <mxGeometry x="424.99" y="630" width="70" height="30" as="geometry" />
        </mxCell>
        <mxCell id="I4wE88-YnJjtMIAT1H6s-9" value="" style="rounded=1;whiteSpace=wrap;html=1;fillColor=default;dashed=1;strokeColor=#FF8000;fillStyle=hatch;" parent="1" vertex="1">
          <mxGeometry x="590" y="370" width="130" height="350" as="geometry" />
        </mxCell>
        <mxCell id="I4wE88-YnJjtMIAT1H6s-11" value="&lt;b&gt;Bronze Layer&lt;/b&gt;" style="rounded=1;whiteSpace=wrap;html=1;fillColor=#ffe6cc;strokeColor=#d79b00;fillStyle=auto;" parent="1" vertex="1">
          <mxGeometry x="590" y="310" width="130" height="50" as="geometry" />
        </mxCell>
        <mxCell id="vdzcKib5lm1QRR6S1dyZ-7" style="edgeStyle=orthogonalEdgeStyle;rounded=0;orthogonalLoop=1;jettySize=auto;html=1;entryX=0;entryY=0.5;entryDx=0;entryDy=0;" parent="1" source="I4wE88-YnJjtMIAT1H6s-12" target="vdzcKib5lm1QRR6S1dyZ-1" edge="1">
          <mxGeometry relative="1" as="geometry" />
        </mxCell>
        <mxCell id="I4wE88-YnJjtMIAT1H6s-12" value="&lt;b&gt;crm_sales_details&lt;/b&gt;" style="rounded=1;whiteSpace=wrap;html=1;fillColor=#ffe6cc;strokeColor=#d79b00;fillStyle=auto;" parent="1" vertex="1">
          <mxGeometry x="595" y="400" width="120" height="30" as="geometry" />
        </mxCell>
        <mxCell id="vdzcKib5lm1QRR6S1dyZ-8" style="edgeStyle=orthogonalEdgeStyle;rounded=0;orthogonalLoop=1;jettySize=auto;html=1;entryX=0;entryY=0.5;entryDx=0;entryDy=0;" parent="1" source="I4wE88-YnJjtMIAT1H6s-13" target="vdzcKib5lm1QRR6S1dyZ-2" edge="1">
          <mxGeometry relative="1" as="geometry" />
        </mxCell>
        <mxCell id="I4wE88-YnJjtMIAT1H6s-13" value="&lt;b&gt;crm_sales_details&lt;/b&gt;" style="rounded=1;whiteSpace=wrap;html=1;fillColor=#ffe6cc;strokeColor=#d79b00;fillStyle=auto;" parent="1" vertex="1">
          <mxGeometry x="595" y="440" width="120" height="30" as="geometry" />
        </mxCell>
        <mxCell id="vdzcKib5lm1QRR6S1dyZ-9" style="edgeStyle=orthogonalEdgeStyle;rounded=0;orthogonalLoop=1;jettySize=auto;html=1;exitX=1;exitY=0.5;exitDx=0;exitDy=0;" parent="1" source="I4wE88-YnJjtMIAT1H6s-14" target="vdzcKib5lm1QRR6S1dyZ-3" edge="1">
          <mxGeometry relative="1" as="geometry" />
        </mxCell>
        <mxCell id="I4wE88-YnJjtMIAT1H6s-14" value="&lt;b&gt;crm_sales_details&lt;/b&gt;" style="rounded=1;whiteSpace=wrap;html=1;fillColor=#ffe6cc;strokeColor=#d79b00;fillStyle=auto;" parent="1" vertex="1">
          <mxGeometry x="595" y="480" width="120" height="30" as="geometry" />
        </mxCell>
        <mxCell id="vdzcKib5lm1QRR6S1dyZ-10" style="edgeStyle=orthogonalEdgeStyle;rounded=0;orthogonalLoop=1;jettySize=auto;html=1;entryX=0;entryY=0.5;entryDx=0;entryDy=0;" parent="1" source="I4wE88-YnJjtMIAT1H6s-15" target="vdzcKib5lm1QRR6S1dyZ-4" edge="1">
          <mxGeometry relative="1" as="geometry" />
        </mxCell>
        <mxCell id="I4wE88-YnJjtMIAT1H6s-15" value="&lt;b&gt;crm_sales_details&lt;/b&gt;" style="rounded=1;whiteSpace=wrap;html=1;fillColor=#ffe6cc;strokeColor=#d79b00;fillStyle=auto;" parent="1" vertex="1">
          <mxGeometry x="595" y="550" width="120" height="30" as="geometry" />
        </mxCell>
        <mxCell id="I4wE88-YnJjtMIAT1H6s-16" value="&lt;b&gt;crm_sales_details&lt;/b&gt;" style="rounded=1;whiteSpace=wrap;html=1;fillColor=#ffe6cc;strokeColor=#d79b00;fillStyle=auto;" parent="1" vertex="1">
          <mxGeometry x="595" y="590" width="120" height="30" as="geometry" />
        </mxCell>
        <mxCell id="vdzcKib5lm1QRR6S1dyZ-12" style="edgeStyle=orthogonalEdgeStyle;rounded=0;orthogonalLoop=1;jettySize=auto;html=1;entryX=0;entryY=0.5;entryDx=0;entryDy=0;" parent="1" source="I4wE88-YnJjtMIAT1H6s-17" target="vdzcKib5lm1QRR6S1dyZ-6" edge="1">
          <mxGeometry relative="1" as="geometry" />
        </mxCell>
        <mxCell id="I4wE88-YnJjtMIAT1H6s-17" value="&lt;b&gt;crm_sales_details&lt;/b&gt;" style="rounded=1;whiteSpace=wrap;html=1;fillColor=#ffe6cc;strokeColor=#d79b00;fillStyle=auto;" parent="1" vertex="1">
          <mxGeometry x="595" y="630" width="120" height="30" as="geometry" />
        </mxCell>
        <mxCell id="I4wE88-YnJjtMIAT1H6s-20" style="edgeStyle=orthogonalEdgeStyle;rounded=0;orthogonalLoop=1;jettySize=auto;html=1;entryX=0;entryY=0.5;entryDx=0;entryDy=0;" parent="1" source="I4wE88-YnJjtMIAT1H6s-4" target="I4wE88-YnJjtMIAT1H6s-12" edge="1">
          <mxGeometry relative="1" as="geometry" />
        </mxCell>
        <mxCell id="I4wE88-YnJjtMIAT1H6s-23" style="edgeStyle=orthogonalEdgeStyle;rounded=0;orthogonalLoop=1;jettySize=auto;html=1;entryX=0.023;entryY=0.673;entryDx=0;entryDy=0;entryPerimeter=0;" parent="1" source="I4wE88-YnJjtMIAT1H6s-7" target="I4wE88-YnJjtMIAT1H6s-9" edge="1">
          <mxGeometry relative="1" as="geometry" />
        </mxCell>
        <mxCell id="I4wE88-YnJjtMIAT1H6s-28" value="" style="rounded=1;whiteSpace=wrap;html=1;fillColor=#f5f5f5;dashed=1;strokeColor=#666666;fillStyle=hatch;fontColor=#333333;" parent="1" vertex="1">
          <mxGeometry x="760" y="370" width="130" height="350" as="geometry" />
        </mxCell>
        <mxCell id="I4wE88-YnJjtMIAT1H6s-29" value="&lt;b&gt;Silver Layer&lt;/b&gt;" style="rounded=1;whiteSpace=wrap;html=1;fillColor=#f5f5f5;strokeColor=#666666;fillStyle=auto;fontColor=#333333;" parent="1" vertex="1">
          <mxGeometry x="765" y="310" width="130" height="50" as="geometry" />
        </mxCell>
        <mxCell id="I4wE88-YnJjtMIAT1H6s-31" value="" style="rounded=1;whiteSpace=wrap;html=1;fillColor=none;dashed=1;strokeColor=#d6b656;fillStyle=hatch;" parent="1" vertex="1">
          <mxGeometry x="940" y="370" width="130" height="350" as="geometry" />
        </mxCell>
        <mxCell id="vdzcKib5lm1QRR6S1dyZ-1" value="&lt;b&gt;crm_sales_details&lt;/b&gt;" style="rounded=1;whiteSpace=wrap;html=1;fillColor=#f5f5f5;strokeColor=#666666;fillStyle=auto;fontColor=#333333;" parent="1" vertex="1">
          <mxGeometry x="765" y="400" width="120" height="30" as="geometry" />
        </mxCell>
        <mxCell id="vdzcKib5lm1QRR6S1dyZ-2" value="&lt;b&gt;crm_cust_info&lt;/b&gt;" style="rounded=1;whiteSpace=wrap;html=1;fillColor=#f5f5f5;strokeColor=#666666;fillStyle=auto;fontColor=#333333;" parent="1" vertex="1">
          <mxGeometry x="765" y="440" width="120" height="30" as="geometry" />
        </mxCell>
        <mxCell id="vdzcKib5lm1QRR6S1dyZ-3" value="&lt;b&gt;crm_prd_info&lt;/b&gt;" style="rounded=1;whiteSpace=wrap;html=1;fillColor=#f5f5f5;strokeColor=#666666;fillStyle=auto;fontColor=#333333;" parent="1" vertex="1">
          <mxGeometry x="765" y="480" width="120" height="30" as="geometry" />
        </mxCell>
        <mxCell id="vdzcKib5lm1QRR6S1dyZ-4" value="&lt;b&gt;erp_cust_AZ12&lt;/b&gt;" style="rounded=1;whiteSpace=wrap;html=1;fillColor=#f5f5f5;strokeColor=#666666;fillStyle=auto;fontColor=#333333;" parent="1" vertex="1">
          <mxGeometry x="765" y="550" width="120" height="30" as="geometry" />
        </mxCell>
        <mxCell id="vdzcKib5lm1QRR6S1dyZ-5" value="&lt;b&gt;erp_loc_A101&lt;/b&gt;" style="rounded=1;whiteSpace=wrap;html=1;fillColor=#f5f5f5;strokeColor=#666666;fillStyle=auto;fontColor=#333333;" parent="1" vertex="1">
          <mxGeometry x="765" y="590" width="120" height="30" as="geometry" />
        </mxCell>
        <mxCell id="vdzcKib5lm1QRR6S1dyZ-6" value="&lt;b&gt;erp_px_cat_g1v2&lt;/b&gt;" style="rounded=1;whiteSpace=wrap;html=1;fillColor=#f5f5f5;strokeColor=#666666;fillStyle=auto;fontColor=#333333;" parent="1" vertex="1">
          <mxGeometry x="765" y="630" width="120" height="30" as="geometry" />
        </mxCell>
        <mxCell id="vdzcKib5lm1QRR6S1dyZ-11" style="edgeStyle=orthogonalEdgeStyle;rounded=0;orthogonalLoop=1;jettySize=auto;html=1;entryX=0.02;entryY=0.672;entryDx=0;entryDy=0;entryPerimeter=0;" parent="1" source="I4wE88-YnJjtMIAT1H6s-16" target="I4wE88-YnJjtMIAT1H6s-28" edge="1">
          <mxGeometry relative="1" as="geometry" />
        </mxCell>
        <mxCell id="HhXlOXBl3FJsPXF932at-1" value="&lt;b&gt;Gold Layer&lt;/b&gt;" style="rounded=1;whiteSpace=wrap;html=1;fillColor=#fff2cc;strokeColor=#d6b656;fillStyle=auto;gradientColor=#ffd966;" vertex="1" parent="1">
          <mxGeometry x="940" y="310" width="130" height="50" as="geometry" />
        </mxCell>
        <mxCell id="HhXlOXBl3FJsPXF932at-2" value="&lt;b&gt;fact_sales&lt;/b&gt;" style="rounded=1;whiteSpace=wrap;html=1;fillColor=#fff2cc;strokeColor=#d6b656;fillStyle=auto;gradientColor=#ffd966;" vertex="1" parent="1">
          <mxGeometry x="945" y="410" width="120" height="30" as="geometry" />
        </mxCell>
        <mxCell id="HhXlOXBl3FJsPXF932at-3" value="&lt;b&gt;dim_customers&lt;/b&gt;" style="rounded=1;whiteSpace=wrap;html=1;fillColor=#fff2cc;strokeColor=#d6b656;fillStyle=auto;gradientColor=#ffd966;" vertex="1" parent="1">
          <mxGeometry x="945" y="520" width="120" height="30" as="geometry" />
        </mxCell>
        <mxCell id="HhXlOXBl3FJsPXF932at-4" value="&lt;b&gt;dim_products&lt;/b&gt;" style="rounded=1;whiteSpace=wrap;html=1;fillColor=#fff2cc;strokeColor=#d6b656;fillStyle=auto;gradientColor=#ffd966;" vertex="1" parent="1">
          <mxGeometry x="945" y="580" width="120" height="30" as="geometry" />
        </mxCell>
        <mxCell id="HhXlOXBl3FJsPXF932at-5" value="" style="endArrow=classic;html=1;rounded=0;exitX=0.977;exitY=0.134;exitDx=0;exitDy=0;exitPerimeter=0;entryX=0;entryY=0.5;entryDx=0;entryDy=0;" edge="1" parent="1" source="I4wE88-YnJjtMIAT1H6s-28" target="HhXlOXBl3FJsPXF932at-2">
          <mxGeometry width="50" height="50" relative="1" as="geometry">
            <mxPoint x="895" y="430" as="sourcePoint" />
            <mxPoint x="945" y="380" as="targetPoint" />
          </mxGeometry>
        </mxCell>
        <mxCell id="HhXlOXBl3FJsPXF932at-6" value="" style="endArrow=classic;html=1;rounded=0;exitX=1;exitY=0.25;exitDx=0;exitDy=0;entryX=0.031;entryY=0.466;entryDx=0;entryDy=0;entryPerimeter=0;" edge="1" parent="1" source="I4wE88-YnJjtMIAT1H6s-28" target="I4wE88-YnJjtMIAT1H6s-31">
          <mxGeometry width="50" height="50" relative="1" as="geometry">
            <mxPoint x="910" y="460" as="sourcePoint" />
            <mxPoint x="968" y="468" as="targetPoint" />
          </mxGeometry>
        </mxCell>
        <mxCell id="HhXlOXBl3FJsPXF932at-7" value="" style="endArrow=classic;html=1;rounded=0;exitX=0.969;exitY=0.357;exitDx=0;exitDy=0;entryX=0;entryY=0.5;entryDx=0;entryDy=0;exitPerimeter=0;" edge="1" parent="1" source="I4wE88-YnJjtMIAT1H6s-28" target="HhXlOXBl3FJsPXF932at-4">
          <mxGeometry width="50" height="50" relative="1" as="geometry">
            <mxPoint x="900" y="500" as="sourcePoint" />
            <mxPoint x="954" y="575" as="targetPoint" />
          </mxGeometry>
        </mxCell>
        <mxCell id="HhXlOXBl3FJsPXF932at-8" value="" style="endArrow=classic;html=1;rounded=0;exitX=1;exitY=0.5;exitDx=0;exitDy=0;entryX=0;entryY=0.5;entryDx=0;entryDy=0;" edge="1" parent="1" source="vdzcKib5lm1QRR6S1dyZ-4" target="HhXlOXBl3FJsPXF932at-3">
          <mxGeometry width="50" height="50" relative="1" as="geometry">
            <mxPoint x="920" y="590" as="sourcePoint" />
            <mxPoint x="974" y="665" as="targetPoint" />
          </mxGeometry>
        </mxCell>
        <mxCell id="HhXlOXBl3FJsPXF932at-9" value="" style="endArrow=classic;html=1;rounded=0;exitX=1;exitY=0.5;exitDx=0;exitDy=0;entryX=0;entryY=0.75;entryDx=0;entryDy=0;" edge="1" parent="1" source="vdzcKib5lm1QRR6S1dyZ-5" target="HhXlOXBl3FJsPXF932at-3">
          <mxGeometry width="50" height="50" relative="1" as="geometry">
            <mxPoint x="910" y="620" as="sourcePoint" />
            <mxPoint x="970" y="590" as="targetPoint" />
          </mxGeometry>
        </mxCell>
        <mxCell id="HhXlOXBl3FJsPXF932at-10" value="" style="endArrow=classic;html=1;rounded=0;exitX=1;exitY=0.5;exitDx=0;exitDy=0;entryX=0.038;entryY=0.66;entryDx=0;entryDy=0;entryPerimeter=0;" edge="1" parent="1" source="vdzcKib5lm1QRR6S1dyZ-6" target="I4wE88-YnJjtMIAT1H6s-31">
          <mxGeometry width="50" height="50" relative="1" as="geometry">
            <mxPoint x="895" y="672" as="sourcePoint" />
            <mxPoint x="955" y="610" as="targetPoint" />
          </mxGeometry>
        </mxCell>
      </root>
    </mxGraphModel>
  </diagram>
</mxfile>
